Coordinates
version=1
nRows=26
nColumns=22
inDegrees=yes

Units are S.I. units (second, meters, Newtons, ...)
If the header above contains a line with 'inDegrees', this indicates whether rotational values are in degrees (yes) or radians (no).

endheader
time	pelvis_tilt	pelvis_list	pelvis_rotation	pelvis_tx	pelvis_ty	pelvis_tz	hip_flexion_r	hip_adduction_r	hip_rotation_r	knee_angle_r	ankle_angle_r	subtalar_angle_r	hip_flexion_l	hip_adduction_l	hip_rotation_l	knee_angle_l	ankle_angle_l	subtalar_angle_l	lumbar_extension	lumbar_bending	lumbar_rotation
      1.32000000	     -3.53101787	     -4.36545967	     -1.72702692	      1.12418639	      0.94154901	     -0.28241864	      8.88575085	      3.97388620	     -2.31832195	    -17.84677222	     11.35790101	     -2.23289780	      9.73591218	     -7.50141547	     -6.75610063	    -23.17073797	     13.68753626	     -1.95765561	     -4.62438043	      2.10450374	      0.90335635
      1.33000000	     -3.49921555	     -4.36565971	     -1.75717506	      1.12373447	      0.94162928	     -0.28217351	      8.93877726	      3.99161673	     -2.29850148	    -17.94144449	     11.33687684	     -2.24198427	      9.77870556	     -7.52228975	     -6.74578668	    -23.25557114	     13.64715367	     -1.93803337	     -4.71678456	      2.11365712	      0.90238116
      1.34000000	     -3.55620147	     -4.37578937	     -1.82619542	      1.12318321	      0.94156892	     -0.28181859	      9.11519962	      4.03251856	     -2.24286463	    -18.07230055	     11.29238432	     -2.29546533	      9.94261831	     -7.57703701	     -6.79545770	    -23.38877002	     13.61175084	     -1.84453329	     -4.71167118	      2.13584667	      0.92212510
      1.35000000	     -3.54781928	     -4.38573727	     -1.88049312	      1.12262742	      0.94161331	     -0.28145616	      9.21963406	      4.06637550	     -2.23849353	    -18.19834472	     11.26383089	     -2.31649673	     10.02193196	     -7.62309933	     -6.80931223	    -23.49281019	     13.55360168	     -1.79067529	     -4.78595956	      2.15450786	      0.93962979
      1.36000000	     -3.51307833	     -4.38401306	     -1.92798351	      1.12203875	      0.94169917	     -0.28106628	      9.29356236	      4.09191129	     -2.19934894	    -18.31898788	     11.23364901	     -2.32116358	     10.06685084	     -7.65064752	     -6.78936521	    -23.58189256	     13.52021109	     -1.76908385	     -4.89376287	      2.15756788	      0.92198444
      1.37000000	     -3.59472489	     -4.39417324	     -2.02002407	      1.12133254	      0.94159778	     -0.28053787	      9.53363920	      4.14632114	     -2.12964679	    -18.49706962	     11.18594856	     -2.35710984	     10.26526914	     -7.72039238	     -6.84488612	    -23.72356182	     13.48331995	     -1.63941532	     -4.87253883	      2.17190661	      0.95930539
      1.38000000	     -3.60449832	     -4.39596412	     -2.08759118	      1.12063082	      0.94160960	     -0.28003435	      9.69052133	      4.18332428	     -2.09939753	    -18.66475495	     11.15328907	     -2.37775776	     10.37004756	     -7.76640758	     -6.84880971	    -23.83001847	     13.43324996	     -1.55134027	     -4.93505412	      2.17885223	      0.96834188
      1.39000000	     -3.61094630	     -4.39348542	     -2.16243975	      1.11989127	      0.94162361	     -0.27947375	      9.85217897	      4.22150371	     -2.04971139	    -18.84357375	     11.12159682	     -2.39080129	     10.46813736	     -7.81130258	     -6.85525602	    -23.93055951	     13.37982559	     -1.47462323	     -5.00280769	      2.17941822	      0.98552524
      1.40000000	     -3.61365750	     -4.38657157	     -2.23885308	      1.11911003	      0.94163674	     -0.27886662	     10.02224949	      4.25875182	     -1.99942470	    -19.03945354	     11.09228237	     -2.40193564	     10.56228331	     -7.85356389	     -6.86138620	    -24.02761602	     13.31554936	     -1.40049092	     -5.07571663	      2.17478086	      1.00579950
      1.41000000	     -3.61980909	     -4.37305876	     -2.31736794	      1.11827737	      0.94163449	     -0.27821561	     10.20648855	      4.29298912	     -1.93746061	    -19.24745531	     11.06846827	     -2.41599560	     10.66381591	     -7.89131879	     -6.86221598	    -24.12656225	     13.25544906	     -1.32376163	     -5.14656872	      2.16444613	      1.03014188
      1.42000000	     -3.62406428	     -4.35491621	     -2.39750445	      1.11739031	      0.94162360	     -0.27750892	     10.40195651	      4.32828872	     -1.86856141	    -19.47282411	     11.04563546	     -2.43498805	     10.76746968	     -7.92781497	     -6.86444962	    -24.22752805	     13.19049127	     -1.24600506	     -5.22131431	      2.14842660	      1.05942920
      1.43000000	     -3.62759662	     -4.33156936	     -2.48294399	      1.11643978	      0.94160007	     -0.27675576	     10.60889821	      4.36262673	     -1.79016392	    -19.71162633	     11.02389639	     -2.46124991	     10.87561506	     -7.96191418	     -6.86788561	    -24.33231444	     13.12465393	     -1.16862102	     -5.30089439	      2.13091167	      1.09336544
      1.44000000	     -3.61244689	     -4.30881621	     -2.57051990	      1.11543435	      0.94159659	     -0.27594848	     10.80363071	      4.40084904	     -1.72570909	    -19.95629672	     10.99939185	     -2.48869995	     10.97065906	     -7.99780842	     -6.86247987	    -24.44538739	     13.04624052	     -1.10286387	     -5.40467463	      2.11276194	      1.15576421
      1.45000000	     -3.63490574	     -4.27063536	     -2.66935729	      1.11432979	      0.94151449	     -0.27505717	     11.06332423	      4.43802220	     -1.60181039	    -20.23635164	     10.97726169	     -2.54186698	     11.11626212	     -8.02965352	     -6.88617856	    -24.56506682	     12.98337926	     -1.01533769	     -5.46917489	      2.07937650	      1.19597758
      1.46000000	     -3.64483372	     -4.23466185	     -2.76459153	      1.11313934	      0.94143985	     -0.27411961	     11.31290210	      4.48065026	     -1.49596944	    -20.51075524	     10.94872262	     -2.61123493	     11.26501009	     -8.06405557	     -6.88695230	    -24.70408638	     12.92059296	     -0.93201013	     -5.55804086	      2.05027978	      1.25087377
      1.47000000	     -3.64459243	     -4.19504962	     -2.86379724	      1.11187767	      0.94137609	     -0.27312552	     11.55847484	      4.52389231	     -1.39327470	    -20.78742582	     10.91415596	     -2.68303603	     11.40647008	     -8.09828319	     -6.89456786	    -24.84185840	     12.84152142	     -0.85998537	     -5.66330428	      2.01861070	      1.31686777
      1.48000000	     -3.64999018	     -4.14900812	     -2.96353677	      1.11051732	      0.94129664	     -0.27207062	     11.81635222	      4.56704589	     -1.28965206	    -21.06395885	     10.87732135	     -2.76752277	     11.56892025	     -8.12968319	     -6.89552119	    -24.99359775	     12.75782879	     -0.79100107	     -5.77165931	      1.98090521	      1.39290829
      1.49000000	     -3.66158840	     -4.09590983	     -3.05812887	      1.10905461	      0.94120427	     -0.27096771	     12.08529564	      4.60715388	     -1.19384270	    -21.33607025	     10.83714911	     -2.86729267	     11.75323433	     -8.15580183	     -6.88500907	    -25.15610047	     12.66494743	     -0.72384643	     -5.88288801	      1.93722392	      1.47194252
      1.50000000	     -3.67345318	     -4.03450423	     -3.14137741	      1.10749699	      0.94111832	     -0.26982845	     12.35304315	      4.63980232	     -1.11766736	    -21.59374514	     10.79372134	     -2.97128656	     11.94911118	     -8.17399662	     -6.86001004	    -25.32078058	     12.55612428	     -0.66215602	     -6.00344501	      1.88672079	      1.54809643
      1.51000000	     -3.65908776	     -3.97718813	     -3.20867294	      1.10587494	      0.94109613	     -0.26865989	     12.58715069	      4.67130481	     -1.09604222	    -21.83305049	     10.74584913	     -3.04030883	     12.11089367	     -8.19289487	     -6.81462168	    -25.45783863	     12.40631357	     -0.60692233	     -6.16364950	      1.84172196	      1.64167437
      1.52000000	     -3.73235770	     -3.88173380	     -3.25449945	      1.10406578	      0.94092297	     -0.26746375	     12.92936333	      4.67519616	     -1.03690016	    -22.07772802	     10.71496421	     -3.20220267	     12.41246979	     -8.17773737	     -6.74700263	    -25.63886581	     12.29356204	     -0.54889638	     -6.23820328	      1.75928660	      1.68593314
      1.53000000	     -3.75350353	     -3.77240009	     -3.26780458	      1.10221996	      0.94088566	     -0.26627099	     13.18959990	      4.65069516	     -1.04911532	    -22.26622701	     10.65265720	     -3.29517295	     12.64756921	     -8.14284829	     -6.67417056	    -25.77805389	     12.08878502	     -0.48446320	     -6.38031716	      1.65917835	      1.73930034
      1.54000000	     -3.82700149	     -3.65673968	     -3.24766765	      1.10023734	      0.94076862	     -0.26507332	     13.52675913	      4.62007250	     -1.08392339	    -22.48026630	     10.61752584	     -3.43337430	     12.95111750	     -8.09893128	     -6.55651521	    -25.90300995	     11.90237377	     -0.42612809	     -6.47661625	      1.55924770	      1.76303159
      1.55000000	     -3.89424199	     -3.51579197	     -3.18557862	      1.09817778	      0.94070937	     -0.26389036	     13.83794472	      4.55412016	     -1.15880418	    -22.64827631	     10.56403681	     -3.55001405	     13.25127469	     -8.02437235	     -6.42370857	    -26.00016893	     11.66432414	     -0.35569254	     -6.59000726	      1.42902853	      1.76861529
      1.56000000	     -3.97935767	     -3.35643428	     -3.07485467	      1.09602529	      0.94065321	     -0.26274349	     14.16254177	      4.45974196	     -1.26747520	    -22.79627783	     10.50837999	     -3.66420677	     13.57674855	     -7.92418276	     -6.26009547	    -26.07029099	     11.40429314	     -0.27629999	     -6.69402487	      1.28244224	      1.74569508
      1.57000000	     -4.07786046	     -3.18345355	     -2.91489534	      1.09378994	      0.94061119	     -0.26162236	     14.49106967	      4.34228288	     -1.41177060	    -22.91828798	     10.44636860	     -3.77605722	     13.91892685	     -7.80342918	     -6.06314619	    -26.10998667	     11.12659291	     -0.18491522	     -6.79221088	      1.11955548	      1.69181442
